<?xml version="1.0" encoding="utf-8"?>
<!-- Generator: Adobe Illustrator 17.0.0, SVG Export Plug-In . SVG Version: 6.00 Build 0)  -->
<!DOCTYPE svg PUBLIC "-//W3C//DTD SVG 1.1//EN" "http://www.w3.org/Graphics/SVG/1.1/DTD/svg11.dtd">
<svg version="1.1" id="Capa_1" xmlns="http://www.w3.org/2000/svg" xmlns:xlink="http://www.w3.org/1999/xlink" x="0px" y="0px"
	 width="19.874px" height="19.929px" viewBox="0 0 19.874 19.929" enable-background="new 0 0 19.874 19.929" xml:space="preserve">
<path d="M11.245,3.18l-0.242-0.766c-0.096-0.305-0.228-0.603-0.393-0.884c-0.545-0.926-1.18-1.328-1.425-1.352
	C9.094,0.373,9.108,1.12,9.673,2.081c0.538,0.916,1.165,1.318,1.417,1.351C11.09,3.432,11.245,3.18,11.245,3.18z M13.703,2.081
	c0.564-0.961,0.578-1.708,0.488-1.903c-0.245,0.023-0.882,0.424-1.427,1.352c-0.166,0.282-0.297,0.58-0.393,0.884L12.126,3.19
	l0.163,0.252C12.521,3.411,13.157,3.01,13.703,2.081z M11.353,3.927h2.02v2.818h4.908V3.958h-4.609
	c0.372-0.273,0.75-0.698,1.061-1.225c0.67-1.142,0.768-2.328,0.217-2.651C14.855,0.027,14.748,0,14.632,0
	c-0.561,0-1.335,0.617-1.893,1.562c-0.186,0.319-0.324,0.639-0.42,0.945c-0.096-0.306-0.232-0.626-0.42-0.945
	C11.344,0.617,10.567,0,10.005,0C9.892,0,9.784,0.027,9.688,0.082C9.14,0.405,9.238,1.591,9.907,2.733
	c0.311,0.527,0.691,0.952,1.062,1.225h-4.61v2.787h4.994C11.353,6.745,11.353,3.927,11.353,3.927z M12.946,2.705
	c0.087-0.278,0.208-0.55,0.359-0.81c0.498-0.849,1.082-1.216,1.309-1.237c0.08,0.177,0.068,0.862-0.447,1.741
	c-0.502,0.852-1.084,1.218-1.295,1.246l-0.15-0.23C12.722,3.415,12.946,2.705,12.946,2.705z M10.474,2.399
	c-0.516-0.879-0.53-1.564-0.446-1.741c0.224,0.021,0.807,0.389,1.306,1.237c0.152,0.257,0.271,0.529,0.361,0.81l0.22,0.701
	l-0.142,0.23C11.541,3.607,10.968,3.238,10.474,2.399z M13.54,7.636v3.146c0.364,0.184,0.465,0.516,0.465,0.516
	s0.072-0.034,0.072,1.479c0,1.514-0.324,1.568-0.537,1.616v0.824c0,0,2.462-0.796,3.928-2.65c0.532-0.673,0.822-0.505,0.822-0.505
	l-0.01-4.426C18.28,7.636,13.54,7.636,13.54,7.636z M11.353,7.636H6.358v2.572c1.209,0,3.428,0,4.994,0V7.636H11.353z M0,10.264
	h2.855v9.663H0V10.264z M18.026,13.379c-0.113-0.044-0.23-0.061-0.349-0.041c-0.897,0.165-2.255,3.501-5.789,2.538
	c0,0-1.034-0.334-1.425-0.574c-0.346-0.191-1.08-0.628-1.68-1.084h1.68h1.889c0,0,0.146,0.009,0.315-0.029
	c0.231-0.053,0.508-0.194,0.508-0.576c0-0.66,0-1.647,0-1.647s-0.11-0.548-0.508-0.749c-0.091-0.046-0.194-0.075-0.315-0.075
	c-0.186,0-0.924,0-1.889,0c-1.711,0-4.133,0-5.453,0c-0.581,0-0.949,0-0.949,0v7.026c0,0,5.602,1.758,7.578,1.758
	c0,0,4.939,0.22,8.234-3.624C19.874,16.303,19.015,13.763,18.026,13.379z"/>
</svg>
